<svg width="23" height="25" viewBox="0 0 23 25" fill="none" xmlns="http://www.w3.org/2000/svg">
<path d="M0 0V19.7437C0 20.5577 0.326805 21.3383 0.908518 21.9139C1.49023 22.4895 2.2792 22.8129 3.10187 22.8129H17.2424C18.065 22.8129 18.854 22.4895 19.4357 21.9139C20.0174 21.3383 20.3442 20.5577 20.3442 19.7437V3.06917C20.3442 2.25518 20.0174 1.47451 19.4357 0.89893C18.854 0.323348 18.065 0 17.2424 0H4.75886" fill="#F6DEAD"/>
<path opacity="0.5" d="M12.6315 8.07498L9.81379 6.75427L6.99609 8.07498V1.03174H12.6315V8.07498Z" fill="#FFCC66"/>
<path d="M12.3139 9.11105L10.0245 8.03782C9.96974 8.01238 9.90995 7.9992 9.84943 7.9992C9.7889 7.9992 9.72912 8.01238 9.67432 8.03782L7.38494 9.11105C7.32386 9.14066 7.25616 9.15437 7.18823 9.15091C7.1203 9.14745 7.05439 9.1269 6.99671 9.09123C6.93903 9.05556 6.89149 9.00595 6.85858 8.94705C6.82566 8.88815 6.80846 8.82192 6.80859 8.75462V2.18264C6.80859 2.07761 6.85076 1.97686 6.92582 1.90259C7.00088 1.82833 7.10268 1.78662 7.20884 1.78662H12.486C12.5922 1.78662 12.694 1.82833 12.769 1.90259C12.8441 1.97686 12.8863 2.07761 12.8863 2.18264V8.75462C12.8861 8.82139 12.8688 8.88703 12.8361 8.94543C12.8034 9.00383 12.7563 9.0531 12.6992 9.08867C12.6421 9.12423 12.5768 9.14494 12.5095 9.14886C12.4421 9.15277 12.3748 9.13976 12.3139 9.11105Z" stroke="#4D2C19" stroke-width="1.00018" stroke-miterlimit="10"/>
<path d="M1.83209 1.77899V21.0098C1.8358 21.8062 2.15893 22.5684 2.73045 23.1291C3.30198 23.6898 4.07512 24.003 4.87993 23.9998H18.7743C19.5791 24.003 20.3522 23.6898 20.9238 23.1291C21.4953 22.5684 21.8184 21.8062 21.8221 21.0098V4.77292C21.8203 4.37871 21.74 3.98873 21.5858 3.62522C21.4317 3.26172 21.2067 2.93179 20.9236 2.65433C20.6406 2.37687 20.3051 2.15729 19.9364 2.00811C19.5676 1.85894 19.1727 1.78312 18.7743 1.78494L11.9982 1.72949" stroke="#4D2C19" stroke-width="1.00018" stroke-miterlimit="10" stroke-linecap="round"/>
<path d="M6.99609 14.479H17.3883" stroke="#4D2C19" stroke-width="1.00018" stroke-miterlimit="10" stroke-linecap="round"/>
<path d="M6.99609 16.8545H15.6173" stroke="#4D2C19" stroke-width="1.00018" stroke-miterlimit="10" stroke-linecap="round"/>
<path d="M6.99609 19.2305H13.2158" stroke="#4D2C19" stroke-width="1.00018" stroke-miterlimit="10" stroke-linecap="round"/>
</svg>
