<svg width="7" height="9" viewBox="0 0 7 9" fill="none" xmlns="http://www.w3.org/2000/svg">
<path d="M0 0H2.93803C3.60061 0 4.10566 0.0517225 4.45323 0.155175C4.9203 0.295575 5.32038 0.544959 5.65347 0.903376C5.98655 1.26174 6.23999 1.70144 6.41377 2.22237C6.58756 2.73963 6.67445 3.37885 6.67445 4.13997C6.67445 4.80874 6.59297 5.38512 6.43003 5.8691C6.23092 6.46026 5.9467 6.93877 5.57741 7.30452C5.29866 7.58166 4.92212 7.79776 4.44781 7.95294C4.093 8.0675 3.61869 8.12476 3.02492 8.12476H0V0ZM1.60751 1.37444V6.75584H2.80769C3.25663 6.75584 3.58071 6.73001 3.77981 6.67828C4.04049 6.61177 4.2559 6.49907 4.42609 6.34017C4.59987 6.18132 4.7411 5.92083 4.84971 5.55874C4.95833 5.19299 5.01261 4.69604 5.01261 4.06793C5.01261 3.43983 4.95833 2.95765 4.84971 2.6214C4.7411 2.28521 4.58904 2.02285 4.39348 1.83445C4.19797 1.64599 3.95 1.51851 3.64947 1.452C3.425 1.40028 2.98512 1.37444 2.32978 1.37444H1.60751Z" fill="#462512"/>
</svg>
