<svg width="17" height="24" viewBox="0 0 17 24" fill="none" xmlns="http://www.w3.org/2000/svg">
<path d="M3.58993 1.64791C5.16495 0.453987 7.27219 0.0240295 9.28557 0C11.2242 0 13.2376 0.323057 14.8873 1.2965C15.877 1.89236 16.7416 2.80039 16.8813 3.90701C16.9993 4.79533 16.8669 5.84519 16.0505 6.44543C15.2027 7.02165 14.0877 7.11333 13.0594 7.1199C13.0449 5.91284 12.9437 4.64256 12.2863 3.5643C11.8528 2.84621 11.0532 2.30929 10.1526 2.20015C8.92191 2.04081 7.57809 2.25034 6.58102 2.95535C5.47079 3.79349 4.9169 5.06814 4.57492 6.30574C4.02824 8.35745 3.96081 10.4834 3.97766 12.5853C4.01379 14.2529 4.18238 15.9422 4.77963 17.5312C5.18662 18.5964 5.83928 19.6353 6.88209 20.2858C8.21626 21.137 9.93581 21.2985 11.5181 21.1327C13.5001 20.9209 15.3231 19.7794 16.2383 18.1729C16.9897 18.8364 17.1245 19.9082 16.7802 20.7747C16.4261 21.7023 15.6097 22.4183 14.6946 22.9094C13.2665 23.6646 11.5975 23.9636 9.95748 23.9898C8.16327 24.0312 6.32818 23.7213 4.75314 22.9202C3.12754 22.0843 1.91616 20.6961 1.17682 19.1573C0.0738154 16.907 -0.203137 14.41 -0.191096 11.9719C-0.174238 9.86134 0.00879163 7.72009 0.748139 5.7055C1.29964 4.16893 2.19553 2.68687 3.59475 1.65229L3.58993 1.64791Z" fill="#E9811F"/>
</svg>
