<svg width="19" height="24" viewBox="0 0 19 24" fill="none" xmlns="http://www.w3.org/2000/svg">
<path d="M5.43049 0.790225C6.98383 0.102676 8.75654 -0.0850715 10.4686 0.0328317C12.3304 0.155059 14.1868 0.801118 15.5213 2.00593C16.9614 3.28502 17.7585 5.0377 18.1607 6.80126C18.5872 8.60419 18.5266 10.4572 18.5169 12.2907C13.7389 12.2863 8.96358 12.3038 4.18773 12.282C4.15393 13.2685 4.26496 14.2573 4.4071 15.2351C4.65973 16.7215 5.10545 18.2407 6.13153 19.4564C6.80307 20.264 7.78088 20.8511 8.86703 21.0891C10.8709 21.5322 13.084 21.1894 14.7843 20.1221C15.5669 19.6376 16.2679 19.022 16.7372 18.2712C17.1105 18.4087 17.3203 18.7601 17.4624 19.0832C17.7826 19.954 17.3685 20.8904 16.7785 21.5845C15.738 22.7719 14.1342 23.4223 12.5423 23.7694C10.2975 24.1732 7.87474 24.0837 5.77967 23.1931C4.17109 22.5274 2.85591 21.3597 1.97197 19.9846C0.604218 17.8609 0.101102 15.3726 0.0115275 12.9411C-0.0362097 11.1885 0.0576569 9.42266 0.418635 7.69616C0.710422 6.332 1.17761 4.98312 1.96017 3.78044C2.77868 2.52106 3.96888 1.43628 5.43049 0.796739V0.790225ZM6.69258 3.24134C5.85691 3.9267 5.35594 4.87398 5.00891 5.83001C4.53475 7.16576 4.33683 8.56926 4.25048 9.96615C7.55721 9.96615 10.8634 9.98142 14.168 9.95744C14.1487 8.51469 14.05 7.05885 13.6236 5.66191C13.313 4.66882 12.8142 3.66479 11.8922 3.01435C11.1118 2.43375 10.0567 2.26571 9.07192 2.33556C8.19764 2.38794 7.33569 2.70005 6.6899 3.24134H6.69258Z" fill="#E9811F"/>
</svg>
