<svg width="13" height="33" viewBox="0 0 13 33" fill="none" xmlns="http://www.w3.org/2000/svg">
<path d="M0.0166761 1.82471C-0.000219638 1.21574 -0.0122345 0.606785 0.0214496 0C2.73082 0.0261918 5.44015 -0.00873152 8.15188 0.0196431C8.13987 9.16286 8.15188 18.306 8.14705 27.4514C8.14228 28.3049 8.13987 29.2303 8.68171 29.9703C9.06945 30.5312 9.78229 30.8368 10.4879 30.9197C11.0587 30.9961 11.6367 31.0092 12.2123 30.9874C12.2508 31.5942 12.2219 32.2031 12.2268 32.8099C8.16872 32.8078 4.10833 32.8187 0.0503589 32.8034L0.00943494 32.7685C-0.00982081 32.1791 0.00943555 31.5854 0.0046082 30.9939C1.01851 30.983 2.14317 31.0441 3.01017 30.481C3.85549 29.907 4.09149 28.8855 4.08666 27.9796C4.08666 20.2072 4.08666 12.4347 4.08666 4.66437C4.09632 3.80876 3.84101 2.85493 3.03908 2.32454C2.16484 1.7636 1.03294 1.82689 0.0142617 1.82471H0.0166761Z" fill="#E9811F"/>
</svg>
