<svg width="21" height="24" viewBox="0 0 21 24" fill="none" xmlns="http://www.w3.org/2000/svg">
<path d="M9.07762 0.0335402C10.8935 -0.0821188 12.7743 0.0859233 14.4433 0.780042C15.8377 1.34531 17.018 2.29696 17.8606 3.44726C18.8239 4.74814 19.3898 6.25635 19.7223 7.78422C20.1295 9.70713 20.182 11.6781 20.0688 13.6294C19.9439 15.5021 19.6043 17.3945 18.7735 19.1254C18.1379 20.4568 17.1429 21.6638 15.8257 22.502C14.4433 23.3947 12.7599 23.8421 11.0789 23.9534C9.24137 24.0822 7.34122 23.9011 5.65782 23.1895C4.17674 22.5805 2.94367 21.5307 2.09358 20.2822C1.22176 19.0097 0.69917 17.5648 0.388504 16.1024C0.0344449 14.3977 -0.0401633 12.6581 0.017604 10.9273C0.0946806 9.11784 0.342751 7.29526 1.00742 5.57751C1.57099 4.13262 2.47649 2.75971 3.81067 1.79278C5.28456 0.686167 7.18954 0.151389 9.08003 0.0335402H9.07762ZM9.28471 2.31005C8.27564 2.39954 7.28587 2.76622 6.55131 3.41015C5.4628 4.34867 4.94981 5.68665 4.63432 6.98753C4.14783 9.17241 4.12133 11.4184 4.20806 13.6359C4.31641 15.4061 4.50666 17.2199 5.29422 18.8635C5.81439 19.9679 6.72713 20.9806 7.99147 21.4215C9.19079 21.8341 10.5443 21.8537 11.7773 21.5438C13.0826 21.2142 14.1037 20.2691 14.6721 19.1778C15.5848 17.4578 15.7775 15.5196 15.8931 13.6381C15.9822 11.3987 15.9509 9.13311 15.4524 6.93077C15.1152 5.55572 14.5372 4.13043 13.2993 3.21151C12.1916 2.38208 10.6791 2.1813 9.28713 2.31005H9.28471Z" fill="#E9811F"/>
</svg>
