<svg width="25" height="24" viewBox="0 0 25 24" fill="none" xmlns="http://www.w3.org/2000/svg">
<path d="M0.0154202 0C3.60375 0.00213474 7.19208 0 10.7809 0C10.7901 0.602379 10.7713 1.20262 10.7927 1.80506C9.99784 1.83122 9.13106 1.7876 8.44236 2.21536C7.81856 2.58642 7.62814 3.31328 7.65014 3.95063C7.66462 4.80184 8.04491 5.59854 8.31202 6.40394C9.09029 8.56478 9.86053 10.7256 10.6388 12.8865C11.1446 14.2659 11.6021 15.6585 12.0135 17.0619C12.3123 18.0834 12.6255 19.1071 12.8111 20.1526C12.8395 20.1439 12.9023 20.1307 12.9313 20.122C13.5937 17.9699 14.4873 15.8833 15.2623 13.7661C16.2063 11.2036 17.1482 8.639 18.0922 6.07869C18.4173 5.26021 18.6774 4.38716 18.5621 3.51192C18.4966 3.01206 18.237 2.5035 17.7506 2.23283C17.0592 1.82903 16.2112 1.8356 15.4238 1.80068C15.4527 1.20043 15.4265 0.600189 15.4383 0C18.5186 0.00651368 21.5963 8.85227e-07 24.674 0.00219036C24.6644 0.608948 24.6912 1.2179 24.6596 1.82471C23.988 1.81814 23.2462 1.78541 22.6659 2.14338C22.107 2.51439 21.7937 3.09717 21.517 3.65593C20.9387 4.87388 20.5172 6.14859 20.0285 7.39703C18.8533 10.5073 17.6733 13.6176 16.4981 16.728C15.6743 18.8713 14.8938 21.0278 14.0464 23.1625C12.7457 23.145 11.4455 23.1559 10.1427 23.1581C7.78477 16.7607 5.48266 10.3437 3.13925 3.94187C2.87428 3.30238 2.56587 2.62135 1.93027 2.21104C1.3762 1.85087 0.663357 1.8269 0.00844713 1.81595C-0.00120756 1.21138 -0.00603346 0.604568 0.0132759 0H0.0154202Z" fill="#E9811F"/>
</svg>
